{
	"asset":{
		"generator":"Khronos glTF Blender I/O v4.1.63",
		"version":"2.0"
	},
	"scene":0,
	"scenes":[
		{
			"name":"Scene",
			"nodes":[
				2
			]
		}
	],
	"nodes":[
		{
			"mesh":0,
			"name":"PR33_SPD-A01",
			"rotation":[
				0,
				1,
				0,
				0
			],
			"translation":[
				0,
				0,
				-0.0060000005178153515
			]
		},
		{
			"children":[
				0
			],
			"name":"RM-X52-TNM"
		},
		{
			"children":[
				1
			],
			"name":"rm-x52-tnm v2",
			"rotation":[
				0.70710688829422,
				0,
				0,
				0.7071066498756409
			],
			"translation":[
				0,
				-0.006000000052154064,
				0
			]
		}
	],
	"materials":[
		{
			"doubleSided":true,
			"name":"mat_1",
			"pbrMetallicRoughness":{
				"baseColorFactor":[
					0.10000000149011612,
					0.10000000149011612,
					0.10000000149011612,
					1
				],
				"metallicFactor":0.5,
				"roughnessFactor":0.5
			}
		}
	],
	"meshes":[
		{
			"name":"PR33_SPD-A01",
			"primitives":[
				{
					"attributes":{
						"POSITION":0,
						"NORMAL":1
					},
					"indices":2,
					"material":0
				}
			]
		}
	],
	"accessors":[
		{
			"bufferView":0,
			"componentType":5126,
			"count":5366,
			"max":[
				0.008940743282437325,
				0.029766935855150223,
				0.029007166624069214
			],
			"min":[
				-0.07915924489498138,
				-0.009983066469430923,
				-0.028992846608161926
			],
			"type":"VEC3"
		},
		{
			"bufferView":1,
			"componentType":5126,
			"count":5366,
			"type":"VEC3"
		},
		{
			"bufferView":2,
			"componentType":5123,
			"count":13530,
			"type":"SCALAR"
		}
	],
	"bufferViews":[
		{
			"buffer":0,
			"byteLength":64392,
			"byteOffset":0,
			"target":34962
		},
		{
			"buffer":0,
			"byteLength":64392,
			"byteOffset":64392,
			"target":34962
		},
		{
			"buffer":0,
			"byteLength":27060,
			"byteOffset":128784,
			"target":34963
		}
	],
	"buffers":[
		{
			"byteLength":155844,
			"uri":"rm-x52-tnm-j4-01.bin"
		}
	]
}
