{
	"asset":{
		"generator":"Khronos glTF Blender I/O v4.1.63",
		"version":"2.0"
	},
	"scene":0,
	"scenes":[
		{
			"name":"Scene",
			"nodes":[
				2
			]
		}
	],
	"nodes":[
		{
			"mesh":0,
			"name":"PR33_SPD-A002",
			"rotation":[
				-1,
				0,
				0,
				1.4210854715202004e-14
			],
			"translation":[
				0,
				0,
				-0.0060000005178153515
			]
		},
		{
			"children":[
				0
			],
			"name":"RM-X52-TNM"
		},
		{
			"children":[
				1
			],
			"name":"rm-x52-tnm v2",
			"rotation":[
				0.70710688829422,
				0,
				0,
				0.7071066498756409
			],
			"translation":[
				0,
				-0.006000000052154064,
				0
			]
		}
	],
	"materials":[
		{
			"doubleSided":true,
			"name":"mat_1",
			"pbrMetallicRoughness":{
				"baseColorFactor":[
					0.10000000149011612,
					0.10000000149011612,
					0.10000000149011612,
					1
				],
				"metallicFactor":0.5,
				"roughnessFactor":0.5
			}
		}
	],
	"meshes":[
		{
			"name":"PR33_SPD-A01.001",
			"primitives":[
				{
					"attributes":{
						"POSITION":0,
						"NORMAL":1
					},
					"indices":2,
					"material":0
				}
			]
		}
	],
	"accessors":[
		{
			"bufferView":0,
			"componentType":5126,
			"count":5399,
			"max":[
				0.07909983396530151,
				0.029761429876089096,
				0.028996247798204422
			],
			"min":[
				-0.009000178426504135,
				-0.009988570585846901,
				-0.029003750532865524
			],
			"type":"VEC3"
		},
		{
			"bufferView":1,
			"componentType":5126,
			"count":5399,
			"type":"VEC3"
		},
		{
			"bufferView":2,
			"componentType":5123,
			"count":13530,
			"type":"SCALAR"
		}
	],
	"bufferViews":[
		{
			"buffer":0,
			"byteLength":64788,
			"byteOffset":0,
			"target":34962
		},
		{
			"buffer":0,
			"byteLength":64788,
			"byteOffset":64788,
			"target":34962
		},
		{
			"buffer":0,
			"byteLength":27060,
			"byteOffset":129576,
			"target":34963
		}
	],
	"buffers":[
		{
			"byteLength":156636,
			"uri":"rm-x52-tnm-j4-02.bin"
		}
	]
}
