{
	"asset":{
		"generator":"Khronos glTF Blender I/O v4.1.63",
		"version":"2.0"
	},
	"scene":0,
	"scenes":[
		{
			"name":"Scene",
			"nodes":[
				5
			]
		}
	],
	"nodes":[
		{
			"name":"COMPOUND147"
		},
		{
			"mesh":0,
			"name":"COMPOUND148",
			"translation":[
				0,
				-0.016999999061226845,
				0
			]
		},
		{
			"children":[
				1
			],
			"name":"COMPOUND150"
		},
		{
			"children":[
				0,
				2
			],
			"name":"DC12_STD",
			"rotation":[
				-0.5,
				-0.5,
				0.5,
				0.5
			],
			"translation":[
				0,
				0,
				-0.022999998182058334
			]
		},
		{
			"children":[
				3
			],
			"name":"RM-X52-TNM"
		},
		{
			"children":[
				4
			],
			"name":"rm-x52-tnm v2",
			"rotation":[
				0.70710688829422,
				0,
				0,
				0.7071066498756409
			],
			"translation":[
				0,
				-0.006000000052154064,
				0
			]
		}
	],
	"materials":[
		{
			"doubleSided":true,
			"name":"mat_1",
			"pbrMetallicRoughness":{
				"baseColorFactor":[
					0.10000000149011612,
					0.10000000149011612,
					0.10000000149011612,
					1
				],
				"metallicFactor":0.5,
				"roughnessFactor":0.5
			}
		},
		{
			"doubleSided":true,
			"name":"mat_0",
			"pbrMetallicRoughness":{
				"baseColorFactor":[
					0.5271151661872864,
					0.5271151661872864,
					0.5271151661872864,
					1
				],
				"metallicFactor":0.5,
				"roughnessFactor":0.5
			}
		}
	],
	"meshes":[
		{
			"name":"COMPOUND148",
			"primitives":[
				{
					"attributes":{
						"POSITION":0,
						"NORMAL":1
					},
					"indices":2,
					"material":0
				},
				{
					"attributes":{
						"POSITION":3,
						"NORMAL":4
					},
					"indices":5,
					"material":1
				}
			]
		}
	],
	"accessors":[
		{
			"bufferView":0,
			"componentType":5126,
			"count":8998,
			"max":[
				0.014250000938773155,
				0.04039999842643738,
				0.03525000065565109
			],
			"min":[
				-0.014249999076128006,
				-1.8626448161640496e-09,
				-0.011250000447034836
			],
			"type":"VEC3"
		},
		{
			"bufferView":1,
			"componentType":5126,
			"count":8998,
			"type":"VEC3"
		},
		{
			"bufferView":2,
			"componentType":5123,
			"count":25704,
			"type":"SCALAR"
		},
		{
			"bufferView":3,
			"componentType":5126,
			"count":30,
			"max":[
				0.0034000005107373,
				0.0033999988809227943,
				-0.009549999609589577
			],
			"min":[
				-0.0033999995794147253,
				-1.8626447051417472e-09,
				-0.011250000447034836
			],
			"type":"VEC3"
		},
		{
			"bufferView":4,
			"componentType":5126,
			"count":30,
			"type":"VEC3"
		},
		{
			"bufferView":5,
			"componentType":5123,
			"count":48,
			"type":"SCALAR"
		}
	],
	"bufferViews":[
		{
			"buffer":0,
			"byteLength":107976,
			"byteOffset":0,
			"target":34962
		},
		{
			"buffer":0,
			"byteLength":107976,
			"byteOffset":107976,
			"target":34962
		},
		{
			"buffer":0,
			"byteLength":51408,
			"byteOffset":215952,
			"target":34963
		},
		{
			"buffer":0,
			"byteLength":360,
			"byteOffset":267360,
			"target":34962
		},
		{
			"buffer":0,
			"byteLength":360,
			"byteOffset":267720,
			"target":34962
		},
		{
			"buffer":0,
			"byteLength":96,
			"byteOffset":268080,
			"target":34963
		}
	],
	"buffers":[
		{
			"byteLength":268176,
			"uri":"rm-x52-tnm-base.bin"
		}
	]
}
