{
	"asset":{
		"generator":"Khronos glTF Blender I/O v4.1.63",
		"version":"2.0"
	},
	"scene":0,
	"scenes":[
		{
			"name":"Scene",
			"nodes":[
				3
			]
		}
	],
	"nodes":[
		{
			"mesh":0,
			"name":"SOLID014",
			"rotation":[
				-0.7071068286895752,
				0,
				0,
				0.7071068286895752
			],
			"translation":[
				0,
				0.12699998915195465,
				-0.2044999599456787
			]
		},
		{
			"children":[
				0
			],
			"name":"FR12_S103",
			"rotation":[
				0.7071068286895752,
				-0.7071068286895752,
				0,
				0
			],
			"translation":[
				0.12700000405311584,
				0,
				-0.21050000190734863
			]
		},
		{
			"children":[
				1
			],
			"name":"RM-X52-TNM"
		},
		{
			"children":[
				2
			],
			"name":"rm-x52-tnm v2",
			"rotation":[
				0.70710688829422,
				0,
				0,
				0.7071066498756409
			],
			"translation":[
				0,
				-0.006000000052154064,
				0
			]
		}
	],
	"materials":[
		{
			"doubleSided":true,
			"name":"mat_1",
			"pbrMetallicRoughness":{
				"baseColorFactor":[
					0.10000000149011612,
					0.10000000149011612,
					0.10000000149011612,
					1
				],
				"metallicFactor":0.5,
				"roughnessFactor":0.5
			}
		},
		{
			"doubleSided":true,
			"name":"mat_0",
			"pbrMetallicRoughness":{
				"baseColorFactor":[
					0.5271151661872864,
					0.5271151661872864,
					0.5271151661872864,
					1
				],
				"metallicFactor":0.5,
				"roughnessFactor":0.5
			}
		}
	],
	"meshes":[
		{
			"name":"SOLID012.001",
			"primitives":[
				{
					"attributes":{
						"POSITION":0,
						"NORMAL":1
					},
					"indices":2,
					"material":0
				},
				{
					"attributes":{
						"POSITION":3,
						"NORMAL":4
					},
					"indices":5,
					"material":1
				}
			]
		}
	],
	"accessors":[
		{
			"bufferView":0,
			"componentType":5126,
			"count":23295,
			"max":[
				0.02346481755375862,
				0.002543516457080841,
				0.01424369215965271
			],
			"min":[
				-0.020935198292136192,
				-0.13520649075508118,
				-0.014256305992603302
			],
			"type":"VEC3"
		},
		{
			"bufferView":1,
			"componentType":5126,
			"count":23295,
			"type":"VEC3"
		},
		{
			"bufferView":2,
			"componentType":5123,
			"count":66144,
			"type":"SCALAR"
		},
		{
			"bufferView":3,
			"componentType":5126,
			"count":560,
			"max":[
				0.013314813375473022,
				-0.08350647985935211,
				0.009238354861736298
			],
			"min":[
				-0.013185186311602592,
				-0.08495648205280304,
				-0.009250976145267487
			],
			"type":"VEC3"
		},
		{
			"bufferView":4,
			"componentType":5126,
			"count":560,
			"type":"VEC3"
		},
		{
			"bufferView":5,
			"componentType":5123,
			"count":1632,
			"type":"SCALAR"
		}
	],
	"bufferViews":[
		{
			"buffer":0,
			"byteLength":279540,
			"byteOffset":0,
			"target":34962
		},
		{
			"buffer":0,
			"byteLength":279540,
			"byteOffset":279540,
			"target":34962
		},
		{
			"buffer":0,
			"byteLength":132288,
			"byteOffset":559080,
			"target":34963
		},
		{
			"buffer":0,
			"byteLength":6720,
			"byteOffset":691368,
			"target":34962
		},
		{
			"buffer":0,
			"byteLength":6720,
			"byteOffset":698088,
			"target":34962
		},
		{
			"buffer":0,
			"byteLength":3264,
			"byteOffset":704808,
			"target":34963
		}
	],
	"buffers":[
		{
			"byteLength":708072,
			"uri":"rm-x52-tnm-j2.bin"
		}
	]
}
