{
	"asset":{
		"generator":"Khronos glTF Blender I/O v4.1.63",
		"version":"2.0"
	},
	"scene":0,
	"scenes":[
		{
			"name":"Scene",
			"nodes":[
				4,
				9
			]
		}
	],
	"nodes":[
		{
			"mesh":0,
			"name":"SOLID010",
			"translation":[
				0,
				0,
				0.07650000602006912
			]
		},
		{
			"children":[
				0
			],
			"name":"DC12_W-IDLE_ALT002",
			"rotation":[
				0,
				0,
				-1,
				1.0737721822806634e-10
			],
			"translation":[
				0,
				0,
				-0.08250001072883606
			]
		},
		{
			"name":"FR12_S102",
			"rotation":[
				0.5,
				-0.5,
				-0.5,
				0.5
			],
			"translation":[
				0,
				0,
				-0.061500001698732376
			]
		},
		{
			"children":[
				1,
				2
			],
			"name":"RM-X52-TNM"
		},
		{
			"children":[
				3
			],
			"name":"rm-x52-tnm v2",
			"rotation":[
				0.70710688829422,
				0,
				0,
				0.7071066498756409
			],
			"translation":[
				0,
				-0.006000000052154064,
				0
			]
		},
		{
			"name":"COMPOUND147"
		},
		{
			"name":"COMPOUND150"
		},
		{
			"children":[
				5,
				6
			],
			"name":"DC12_STD",
			"rotation":[
				-0.5,
				-0.5,
				0.5,
				0.5
			],
			"translation":[
				0,
				0,
				-0.023000000044703484
			]
		},
		{
			"children":[
				7
			],
			"name":"RM-X52-TNM.001"
		},
		{
			"children":[
				8
			],
			"name":"rm-x52-tnm v2.001",
			"rotation":[
				0.70710688829422,
				0,
				0,
				0.7071066498756409
			],
			"translation":[
				0,
				-0.006000000052154064,
				0
			]
		}
	],
	"materials":[
		{
			"doubleSided":true,
			"name":"mat_1",
			"pbrMetallicRoughness":{
				"baseColorFactor":[
					0.10000000149011612,
					0.10000000149011612,
					0.10000000149011612,
					1
				],
				"metallicFactor":0.5,
				"roughnessFactor":0.5
			}
		}
	],
	"meshes":[
		{
			"name":"SOLID009.001",
			"primitives":[
				{
					"attributes":{
						"POSITION":0,
						"NORMAL":1
					},
					"indices":2,
					"material":0
				}
			]
		}
	],
	"accessors":[
		{
			"bufferView":0,
			"componentType":5126,
			"count":14793,
			"max":[
				0.01425000000745058,
				0.023399997502565384,
				0
			],
			"min":[
				-0.01425000000745058,
				-0.01900000125169754,
				-0.05175001174211502
			],
			"type":"VEC3"
		},
		{
			"bufferView":1,
			"componentType":5126,
			"count":14793,
			"type":"VEC3"
		},
		{
			"bufferView":2,
			"componentType":5123,
			"count":43224,
			"type":"SCALAR"
		}
	],
	"bufferViews":[
		{
			"buffer":0,
			"byteLength":177516,
			"byteOffset":0,
			"target":34962
		},
		{
			"buffer":0,
			"byteLength":177516,
			"byteOffset":177516,
			"target":34962
		},
		{
			"buffer":0,
			"byteLength":86448,
			"byteOffset":355032,
			"target":34963
		}
	],
	"buffers":[
		{
			"byteLength":441480,
			"uri":"rm-x52-tnm-j0.bin"
		}
	]
}
