{
	"asset":{
		"generator":"Khronos glTF Blender I/O v4.1.63",
		"version":"2.0"
	},
	"scene":0,
	"scenes":[
		{
			"name":"Scene",
			"nodes":[
				0
			]
		}
	],
	"nodes":[
		{
			"mesh":0,
			"name":"SOLID025",
			"rotation":[
				0.7067180871963501,
				0.02344425767660141,
				0.02344425767660141,
				0.7067180871963501
			]
		}
	],
	"materials":[
		{
			"doubleSided":true,
			"name":"mat_0",
			"pbrMetallicRoughness":{
				"baseColorFactor":[
					0.5271151661872864,
					0.5271151661872864,
					0.5271151661872864,
					1
				],
				"metallicFactor":0.5,
				"roughnessFactor":0.5
			}
		},
		{
			"doubleSided":true,
			"name":"mat_1",
			"pbrMetallicRoughness":{
				"baseColorFactor":[
					0.10000000149011612,
					0.10000000149011612,
					0.10000000149011612,
					1
				],
				"metallicFactor":0.5,
				"roughnessFactor":0.5
			}
		}
	],
	"meshes":[
		{
			"name":"SOLID001.003",
			"primitives":[
				{
					"attributes":{
						"POSITION":0,
						"NORMAL":1
					},
					"indices":2,
					"material":0
				},
				{
					"attributes":{
						"POSITION":3,
						"NORMAL":4
					},
					"indices":5,
					"material":1
				}
			]
		}
	],
	"accessors":[
		{
			"bufferView":0,
			"componentType":5126,
			"count":2268,
			"max":[
				0.043767064809799194,
				0.01925380527973175,
				0.0008691344410181046
			],
			"min":[
				0.03691698610782623,
				-0.01929619535803795,
				-0.03718353062868118
			],
			"type":"VEC3"
		},
		{
			"bufferView":1,
			"componentType":5126,
			"count":2268,
			"type":"VEC3"
		},
		{
			"bufferView":2,
			"componentType":5123,
			"count":6228,
			"type":"SCALAR"
		},
		{
			"bufferView":3,
			"componentType":5126,
			"count":20227,
			"max":[
				0.06915102899074554,
				0.06430381536483765,
				0.02712121047079563
			],
			"min":[
				-0.003038153052330017,
				-0.06429620087146759,
				-0.03526896983385086
			],
			"type":"VEC3"
		},
		{
			"bufferView":4,
			"componentType":5126,
			"count":20227,
			"type":"VEC3"
		},
		{
			"bufferView":5,
			"componentType":5123,
			"count":53916,
			"type":"SCALAR"
		}
	],
	"bufferViews":[
		{
			"buffer":0,
			"byteLength":27216,
			"byteOffset":0,
			"target":34962
		},
		{
			"buffer":0,
			"byteLength":27216,
			"byteOffset":27216,
			"target":34962
		},
		{
			"buffer":0,
			"byteLength":12456,
			"byteOffset":54432,
			"target":34963
		},
		{
			"buffer":0,
			"byteLength":242724,
			"byteOffset":66888,
			"target":34962
		},
		{
			"buffer":0,
			"byteLength":242724,
			"byteOffset":309612,
			"target":34962
		},
		{
			"buffer":0,
			"byteLength":107832,
			"byteOffset":552336,
			"target":34963
		}
	],
	"buffers":[
		{
			"byteLength":660168,
			"uri":"rm-x52-tnm-j3.bin"
		}
	]
}
