{
	"asset":{
		"generator":"Khronos glTF Blender I/O v4.1.63",
		"version":"2.0"
	},
	"scene":0,
	"scenes":[
		{
			"name":"Scene",
			"nodes":[
				14
			]
		}
	],
	"nodes":[
		{
			"name":"COMPOUND108"
		},
		{
			"children":[
				0
			],
			"name":"DC12_W-IDLE_ALT002",
			"rotation":[
				0,
				0,
				-1,
				1.0737721822806634e-10
			],
			"translation":[
				0,
				0,
				-0.08250001072883606
			]
		},
		{
			"name":"COMPOUND066"
		},
		{
			"children":[
				2
			],
			"name":"DC12_W-IDLE_ALT1",
			"rotation":[
				0.7071068286895752,
				0,
				-0.7071068286895752,
				7.592779183163145e-11
			],
			"translation":[
				0.024000000208616257,
				0,
				-0.21050000190734863
			]
		},
		{
			"name":"COMPOUND113"
		},
		{
			"children":[
				4
			],
			"name":"FR12_H101",
			"rotation":[
				0,
				0,
				0.7071068286895752,
				0.7071067094802856
			],
			"translation":[
				0,
				0,
				-0.08250001072883606
			]
		},
		{
			"name":"COMPOUND164"
		},
		{
			"children":[
				6
			],
			"name":"FR12_H102",
			"rotation":[
				-0.5,
				-0.5,
				0.5,
				0.5
			],
			"translation":[
				0.024000000208616257,
				0,
				-0.21050000190734863
			]
		},
		{
			"name":"COMPOUND024"
		},
		{
			"mesh":0,
			"name":"SOLID008",
			"translation":[
				0,
				0.2045000195503235,
				0
			]
		},
		{
			"children":[
				8,
				9
			],
			"name":"FR12_S101",
			"rotation":[
				0.5,
				0.5,
				0.5,
				0.5
			],
			"translation":[
				0,
				0,
				-0.21050000190734863
			]
		},
		{
			"name":"COMPOUND159"
		},
		{
			"children":[
				11
			],
			"name":"FR12_S102",
			"rotation":[
				0.5,
				-0.5,
				-0.5,
				0.5
			],
			"translation":[
				0,
				0,
				-0.06149999797344208
			]
		},
		{
			"children":[
				1,
				3,
				5,
				7,
				10,
				12
			],
			"name":"RM-X52-TNM"
		},
		{
			"children":[
				13
			],
			"name":"rm-x52-tnm v2",
			"rotation":[
				0.70710688829422,
				0,
				0,
				0.7071066498756409
			],
			"translation":[
				0,
				-0.006000000052154064,
				0
			]
		}
	],
	"materials":[
		{
			"doubleSided":true,
			"name":"mat_1",
			"pbrMetallicRoughness":{
				"baseColorFactor":[
					0.10000000149011612,
					0.10000000149011612,
					0.10000000149011612,
					1
				],
				"metallicFactor":0.5,
				"roughnessFactor":0.5
			}
		}
	],
	"meshes":[
		{
			"name":"SOLID008",
			"primitives":[
				{
					"attributes":{
						"POSITION":0,
						"NORMAL":1
					},
					"indices":2,
					"material":0
				}
			]
		}
	],
	"accessors":[
		{
			"bufferView":0,
			"componentType":5126,
			"count":26745,
			"max":[
				0.020999999716877937,
				0.002499982248991728,
				0.03525000438094139
			],
			"min":[
				-0.02340000495314598,
				-0.14225001633167267,
				-0.012500002048909664
			],
			"type":"VEC3"
		},
		{
			"bufferView":1,
			"componentType":5126,
			"count":26745,
			"type":"VEC3"
		},
		{
			"bufferView":2,
			"componentType":5123,
			"count":75804,
			"type":"SCALAR"
		}
	],
	"bufferViews":[
		{
			"buffer":0,
			"byteLength":320940,
			"byteOffset":0,
			"target":34962
		},
		{
			"buffer":0,
			"byteLength":320940,
			"byteOffset":320940,
			"target":34962
		},
		{
			"buffer":0,
			"byteLength":151608,
			"byteOffset":641880,
			"target":34963
		}
	],
	"buffers":[
		{
			"byteLength":793488,
			"uri":"rm-x52-tnm-j1.bin"
		}
	]
}
